<svg xmlns="http://www.w3.org/2000/svg" xmlns:xlink="http://www.w3.org/1999/xlink" width="1000" zoomAndPan="magnify" viewBox="0 0 750 749.999995" height="1000" preserveAspectRatio="xMidYMid meet" version="1.0"><defs><clipPath id="5ef1f19e22"><path d="M 5 54 L 742.546875 54 L 742.546875 658.578125 L 5 658.578125 Z M 5 54 " clip-rule="nonzero"/></clipPath></defs><g clip-path="url(#5ef1f19e22)"><path fill="#000000" d="M 737.828125 655.925781 C 684.292969 623.378906 640.425781 575.65625 611.335938 520.40625 C 645.535156 512.101562 678.15625 496.867188 700.613281 469.007812 C 733.765625 426.660156 721.253906 375.644531 692.398438 335.585938 C 712.097656 310.269531 727.21875 278.558594 721.296875 245.730469 C 710.003906 188.980469 649.644531 165.164062 597.582031 156.882812 C 598.203125 154.167969 598.738281 151.40625 599.167969 148.601562 C 603.039062 126.371094 596.640625 101.613281 572.109375 95.554688 C 549.542969 90.65625 527.320312 98.699219 507.085938 108.03125 C 499.835938 89.242188 487.667969 70.945312 469.121094 61.617188 C 434.066406 43.683594 394.5625 63.628906 367.460938 87.445312 C 352.253906 78.585938 336.128906 71.074219 318.953125 66.304688 C 255.964844 47.941406 198.257812 74.136719 179.390625 137.605469 C 168.164062 138.714844 156.976562 140.300781 145.898438 142.546875 C 83.378906 154.789062 16.539062 195.636719 24.109375 267.878906 C 26.269531 287.117188 33.351562 305.21875 43.101562 321.699219 L 45.5625 325.761719 C 46.375 327.070312 47.253906 328.652344 47.894531 329.378906 C 49.242188 331.175781 50.929688 332.71875 52.835938 334.535156 C 50.953125 334.835938 49.734375 334.816406 48.257812 335.648438 L 46.140625 336.910156 C 37.5625 342.003906 29.414062 347.589844 21.992188 354.417969 C 2.722656 371.707031 -1.597656 394.003906 21.480469 409.902344 C 35.789062 419.597656 52.472656 424.390625 69.113281 427.898438 C 66.824219 431.003906 64.640625 434.191406 62.589844 437.507812 C 35.617188 481.394531 60.664062 508.167969 106.734375 511.269531 C 118.414062 512.230469 129.917969 511.761719 141.320312 510.753906 C 152.71875 556.957031 187.625 592.648438 234.679688 603.242188 C 279.917969 613.855469 326.910156 603.132812 368.019531 583.746094 C 413.234375 608.890625 470.917969 622.265625 519.34375 597.613281 C 528.96875 592.734375 537.652344 586.378906 545.246094 578.890625 C 600.707031 622.691406 667.953125 650.574219 737.101562 658.0625 L 742.300781 658.640625 Z M 555.210938 567.71875 C 550.636719 563.632812 546.144531 559.4375 541.800781 555.136719 C 538.488281 559.609375 534.9375 563.609375 531.148438 567.183594 C 489.65625 606.75 422.066406 595.453125 372.574219 566.796875 L 368.574219 564.59375 L 364.597656 566.605469 C 325.945312 586.121094 280.921875 597.804688 238.144531 588.28125 C 194.769531 579.253906 162.410156 545.164062 153.425781 501.855469 L 152.078125 495.753906 C 137.382812 497.574219 122.21875 498.984375 107.675781 498.042969 C 53.261719 494.621094 54.226562 464.46875 83.121094 427.707031 L 88.875 420.347656 L 79.761719 418.847656 C 32.195312 411.359375 -16.808594 390.621094 42.332031 348.808594 C 48.085938 344.550781 55.144531 341.234375 60.234375 336.207031 C 57.519531 330.066406 53.199219 323.601562 49.820312 317.804688 C 0.0898438 230.347656 61.882812 169.144531 148.035156 153.226562 C 161.234375 150.699219 174.6875 149.203125 188.140625 148.238281 C 212.160156 59.09375 297.628906 58.8125 364.46875 102.789062 L 369.109375 105.71875 L 373.324219 102.019531 C 418.921875 60.652344 473.785156 53.292969 494.191406 122.027344 L 497.015625 131.484375 L 505.976562 127.117188 C 524.070312 118.601562 554.675781 104.886719 573.328125 115.027344 C 587.082031 124.273438 581.734375 147.019531 577.5 161.785156 L 574.398438 172.054688 C 616.46875 177.105469 665.621094 187.976562 691.90625 223.433594 C 716.824219 257.542969 698.089844 300.171875 672.894531 329.164062 L 667.929688 335.070312 L 672.636719 341.257812 C 737.402344 426.53125 683.566406 484.347656 602.886719 503.246094 C 598.246094 504.335938 593.496094 505.296875 588.683594 506.113281 C 591.660156 511.910156 594.800781 517.625 598.097656 523.253906 C 629.859375 577.648438 675.695312 623.699219 730.449219 654.511719 C 665.105469 642.035156 604.042969 611.265625 555.210938 567.71875 Z M 555.210938 567.71875 " fill-opacity="1" fill-rule="nonzero"/></g></svg>