<svg xmlns="http://www.w3.org/2000/svg" xmlns:xlink="http://www.w3.org/1999/xlink" width="1000" zoomAndPan="magnify" viewBox="0 0 750 749.999995" height="1000" preserveAspectRatio="xMidYMid meet" version="1.0"><defs><clipPath id="fc03f8316a"><path d="M 59 4 L 691.636719 4 L 691.636719 749 L 59 749 Z M 59 4 " clip-rule="nonzero"/></clipPath></defs><g clip-path="url(#fc03f8316a)"><path fill="#000000" d="M 672.324219 290.609375 C 674.351562 294.558594 676.761719 295.699219 680.59375 294.425781 C 684.390625 293.164062 686.789062 290.449219 687.652344 286.609375 C 689.53125 278.246094 686.675781 271.214844 680.671875 265.566406 C 672.242188 257.632812 662.257812 256.515625 650.847656 259.914062 C 652.796875 261.101562 654.28125 261.976562 655.738281 262.898438 C 659.839844 265.484375 663.328125 268.648438 665.375 273.167969 C 667.503906 277.863281 667.316406 282.398438 664.507812 286.773438 C 663.925781 287.675781 663.347656 288.582031 662.664062 289.644531 C 664.972656 292.09375 665.519531 295.074219 665.722656 298.285156 C 665.816406 299.789062 666.621094 301.347656 667.425781 302.6875 C 672.746094 311.5625 676.578125 320.945312 677.167969 331.382812 C 677.363281 334.753906 677.289062 338.226562 676.703125 341.542969 C 675.433594 348.75 674.304688 356.003906 671.347656 362.839844 C 667.59375 371.511719 666.085938 380.816406 664.289062 390.03125 C 661.871094 402.453125 659.347656 414.859375 658.964844 427.558594 C 658.78125 433.679688 659.09375 439.820312 658.765625 445.929688 C 658.472656 451.339844 657.902344 456.78125 656.914062 462.105469 C 655.332031 470.628906 650.824219 477.769531 645.214844 484.222656 C 642.179688 487.714844 638.996094 491.082031 635.742188 494.371094 C 634.238281 495.894531 633.503906 497.355469 633.40625 499.640625 C 632.808594 513.582031 634.03125 527.316406 636.5 541.058594 C 638.578125 552.644531 638.550781 564.371094 635.226562 575.855469 C 632.414062 585.585938 627.171875 593.664062 618.667969 599.382812 C 616.941406 600.542969 616.015625 601.984375 615.699219 603.96875 C 615.441406 605.578125 615.117188 607.179688 614.777344 608.773438 C 614.605469 609.566406 614.585938 610.644531 614.066406 611.074219 C 610.933594 613.648438 611.886719 617.148438 611.730469 620.40625 C 611.128906 633.253906 606.878906 644.871094 599.75 655.484375 C 592.257812 666.640625 582.433594 675.351562 571.054688 682.363281 C 555.421875 691.992188 538.347656 697.730469 520.292969 700.617188 C 485.671875 706.148438 452.226562 701.851562 419.925781 688.320312 C 419.304688 688.058594 418.65625 687.867188 418.011719 687.660156 C 417.902344 687.625 417.761719 687.691406 417.632812 687.710938 C 417.535156 687.929688 417.292969 688.210938 417.355469 688.367188 C 421.929688 699.179688 417.589844 707.964844 410.84375 716.054688 C 408.820312 718.484375 405.84375 719.84375 402.65625 720.316406 C 395.257812 721.417969 387.855469 722.488281 380.4375 723.429688 C 370.585938 724.683594 360.699219 725.675781 350.859375 727.011719 C 341.191406 728.324219 332.15625 731.710938 323.4375 736.011719 C 315.125 740.113281 306.675781 743.835938 297.550781 745.835938 C 282.496094 749.132812 267.375 750.003906 252.160156 747.136719 C 249.242188 746.585938 246.339844 745.71875 243.570312 744.636719 C 238.265625 742.554688 236.085938 735.835938 237.980469 731.386719 C 241.671875 722.71875 246.875 715.1875 253.699219 708.769531 C 258.355469 704.390625 263.296875 700.355469 270.183594 697.671875 C 268.707031 696.847656 268.023438 696.199219 267.285156 696.128906 C 266.542969 696.058594 265.742188 696.566406 264.96875 696.816406 C 251.121094 701.300781 237.265625 705.753906 223.441406 710.296875 C 221.703125 710.867188 220.113281 711.890625 218.449219 712.695312 C 218.097656 712.867188 217.667969 713.207031 217.382812 713.121094 C 213.851562 712.007812 211.347656 714.488281 208.351562 715.417969 C 203.464844 716.9375 198.332031 717.886719 193.230469 718.476562 C 184.046875 719.53125 174.78125 719.917969 165.601562 721.007812 C 157.773438 721.933594 150.035156 723.613281 142.21875 724.6875 C 126.75 726.808594 111.234375 727.351562 95.980469 723.421875 C 89.710938 721.804688 83.628906 719.214844 77.714844 716.515625 C 70.929688 713.421875 66.703125 707.304688 62.296875 701.632812 C 60.695312 699.574219 60.136719 696.683594 59.222656 694.132812 C 58.96875 693.425781 59.070312 692.558594 59.144531 691.777344 C 59.28125 690.3125 59.679688 688.863281 59.6875 687.402344 C 59.726562 680.367188 62.773438 674.859375 68.046875 670.414062 C 75.769531 663.898438 84.863281 660.855469 94.789062 660.824219 C 105.121094 660.789062 115.453125 661.492188 125.789062 661.808594 C 146.191406 662.429688 166.625 663.726562 186.871094 659.828125 C 189.914062 659.242188 192.875 658.113281 195.785156 657.007812 C 197.515625 656.355469 199.316406 655.570312 199.257812 653.042969 C 199.246094 652.394531 200.335938 651.59375 201.070312 651.078125 C 202.269531 650.234375 203.59375 649.5625 205.179688 648.632812 C 204.316406 647.582031 203.6875 646.761719 203 645.996094 C 180.171875 620.535156 152.496094 600.9375 124.824219 581.320312 C 113.496094 573.289062 102.179688 565.238281 91.113281 556.859375 C 82.8125 550.578125 75.390625 543.257812 70.972656 533.628906 C 68.78125 528.847656 67.230469 523.707031 65.953125 518.589844 C 64.632812 513.296875 65.761719 508.011719 67.667969 502.976562 C 72.660156 489.824219 80.511719 478.722656 91.835938 470.261719 C 94.507812 468.261719 97.539062 466.746094 100.734375 464.808594 C 100.492188 464.066406 100.179688 462.921875 99.761719 461.816406 C 88.136719 431.167969 76.507812 400.519531 64.875 369.871094 C 62.898438 364.660156 63.039062 364.5625 68.640625 364.207031 C 84.257812 363.21875 99.871094 362.125 115.484375 361.109375 C 126.488281 360.394531 137.492188 359.777344 148.496094 359.058594 C 166.960938 357.851562 185.425781 356.578125 203.890625 355.375 C 218.964844 354.398438 234.046875 353.496094 249.121094 352.539062 C 253.054688 352.289062 256.984375 351.980469 261.503906 351.652344 C 271.382812 380 280.746094 408.585938 290.695312 437.292969 C 292.324219 435.464844 293.613281 433.914062 295.015625 432.472656 C 297.207031 430.214844 299.863281 428.988281 303.085938 429.296875 C 305.382812 429.515625 307.703125 429.640625 309.964844 430.070312 C 314.566406 430.941406 317.980469 429.300781 320.382812 425.433594 C 321.453125 423.703125 322.304688 421.835938 323.253906 420.027344 C 327.566406 411.804688 334.171875 407.007812 343.597656 406.390625 C 344.546875 406.328125 345.484375 406.054688 346.429688 406.042969 C 356.753906 405.90625 364.367188 400.640625 369.996094 392.648438 C 374.523438 386.222656 378.546875 379.359375 382.066406 372.324219 C 387.542969 361.382812 392.28125 350.074219 397.554688 339.027344 C 403.308594 326.976562 409.835938 315.359375 417.707031 304.527344 C 422.929688 297.339844 428.714844 290.664062 435.410156 284.816406 C 438.582031 282.046875 441.792969 279.285156 446.042969 278.167969 C 446.78125 277.972656 447.457031 277.378906 448.0625 276.855469 C 451.664062 273.75 455.234375 270.609375 458.960938 267.355469 C 458.824219 264.757812 457.355469 262.742188 455.304688 261.046875 C 453.519531 259.570312 451.675781 258.167969 449.960938 256.613281 C 445.125 252.246094 443.203125 246.773438 444.527344 240.40625 C 445.292969 236.703125 446.503906 233.078125 447.699219 229.480469 C 448.46875 227.164062 449.515625 224.929688 450.546875 222.710938 C 454.480469 214.269531 453.199219 206.292969 448.429688 198.648438 C 446.484375 195.53125 444.375 192.519531 442.359375 189.445312 C 440.789062 187.058594 439.171875 184.695312 437.714844 182.242188 C 432.710938 173.808594 431.984375 165.097656 436.175781 156.109375 C 436.609375 155.171875 437.007812 154.222656 436.933594 153.023438 C 436.578125 153.515625 436.160156 153.976562 435.871094 154.503906 C 428.855469 167.285156 426.875 180.894531 429.382812 195.179688 C 429.976562 198.5625 431.183594 201.789062 434.476562 203.636719 C 436.1875 204.59375 437.929688 205.347656 439.796875 203.949219 C 441.453125 202.710938 442.136719 200.34375 441.386719 198.039062 C 441.042969 196.964844 439.734375 196.023438 441.15625 194.707031 C 441.460938 194.722656 441.984375 194.589844 442.207031 194.792969 C 444.832031 197.136719 445.265625 200.773438 443.378906 204.042969 C 441.71875 206.917969 438.507812 208.164062 435.28125 207.058594 C 431.398438 205.730469 428.941406 202.964844 427.648438 199.121094 C 426.019531 194.296875 425.429688 189.296875 425.5 184.246094 C 425.714844 169.042969 430.375 155.378906 439.984375 143.503906 C 441.597656 141.511719 443.375 139.648438 445.140625 137.660156 C 444.761719 137.125 444.496094 136.664062 444.148438 136.277344 C 431.265625 121.984375 428.914062 105.410156 434.035156 87.488281 C 438.707031 71.125 448.691406 58.199219 461.414062 47.214844 C 468.097656 41.449219 475.605469 37.183594 484.019531 34.46875 C 487.382812 33.382812 490.714844 32.164062 493.945312 30.742188 C 495.363281 30.117188 496.617188 28.949219 497.730469 27.820312 C 506.449219 18.976562 516.308594 11.890625 528.132812 7.761719 C 550.324219 0.0078125 572.15625 6.660156 586.265625 25.480469 C 591.980469 33.105469 595.679688 41.675781 598.136719 50.824219 C 598.378906 51.738281 598.648438 52.640625 598.9375 53.667969 C 607.65625 56.019531 615.183594 60.542969 622.160156 66.105469 C 632.886719 74.65625 638.605469 86.167969 641.714844 99.179688 C 643.675781 107.402344 643.039062 115.699219 641.550781 123.910156 C 641.109375 126.328125 641.4375 128.347656 642.25 130.585938 C 644.746094 137.472656 645.78125 144.589844 644.230469 151.84375 C 643.726562 154.191406 642.847656 156.59375 641.5625 158.59375 C 640.707031 159.917969 638.929688 160.875 637.363281 161.457031 C 635.820312 162.03125 634.410156 161.140625 633.808594 159.515625 C 633.34375 158.265625 633.449219 156.980469 634.863281 156.414062 C 636.257812 155.851562 636.816406 156.773438 637.070312 158.007812 C 637.101562 158.164062 637.484375 158.246094 637.707031 158.363281 C 642.703125 154.1875 643.777344 140.71875 639.929688 133.308594 C 634.785156 144.226562 629.535156 155.378906 624.089844 166.925781 C 625.414062 167.421875 626.476562 167.878906 627.574219 168.234375 C 637.742188 171.5 646.164062 177.242188 652.335938 186.011719 C 668.015625 208.308594 658.453125 237.820312 632.574219 247.148438 C 630.917969 247.746094 629.21875 248.214844 627.582031 248.730469 C 626.628906 252.679688 628.097656 255.296875 631.734375 256.015625 C 633.058594 256.273438 634.445312 256.1875 635.800781 256.28125 C 637.835938 256.425781 640.046875 256.136719 641.859375 256.84375 C 645.421875 258.234375 648.714844 257.480469 652.210938 256.835938 C 656.203125 256.097656 660.304688 255.480469 664.339844 255.570312 C 676.507812 255.855469 687.789062 265.34375 690.394531 277.191406 C 691.21875 280.953125 691.320312 284.792969 689.984375 288.476562 C 688.117188 293.632812 684.53125 296.855469 678.953125 297.53125 C 675.164062 297.988281 671.589844 296.179688 670.226562 292.863281 C 669.707031 291.589844 669.5625 289.882812 669.96875 288.601562 C 670.230469 287.777344 671.753906 287.179688 672.820312 286.875 C 673.222656 286.757812 673.941406 287.753906 674.511719 288.242188 C 673.839844 288.96875 673.167969 289.695312 672.324219 290.609375 Z M 175.039062 717.375 C 175.554688 717.230469 176.0625 716.988281 176.589844 716.945312 C 183.761719 716.390625 190.945312 715.953125 198.109375 715.292969 C 203.734375 714.777344 209.207031 713.714844 212.90625 708.746094 C 214.121094 707.109375 215.023438 708.355469 216.472656 709.082031 C 216.371094 707.355469 216.265625 705.628906 216.125 703.242188 C 214.460938 704.390625 213.429688 705.007812 212.503906 705.757812 C 207.972656 709.414062 202.820312 711.871094 197.1875 713.085938 C 191.222656 714.367188 185.152344 715.152344 179.140625 716.21875 C 177.75 716.46875 176.410156 716.988281 175.039062 717.378906 C 172.378906 717.378906 169.71875 717.378906 167.0625 717.375 C 169.71875 717.375 172.375 717.375 175.039062 717.375 Z M 158.273438 718.160156 C 147.441406 718.921875 136.613281 720.011719 125.765625 720.339844 C 117.496094 720.589844 109.191406 720 100.914062 719.53125 C 96.898438 719.308594 92.914062 718.507812 88.914062 717.964844 C 90.1875 718.859375 91.542969 719.449219 92.945312 719.878906 C 100.015625 722.03125 107.292969 723.042969 114.644531 723.414062 C 128.882812 724.128906 142.882812 722.230469 156.769531 719.300781 C 157.3125 719.183594 157.738281 718.527344 158.257812 718.152344 C 159.835938 718.285156 161.410156 718.417969 162.984375 718.554688 C 162.996094 718.421875 163.003906 718.289062 163.015625 718.160156 C 161.433594 718.160156 159.855469 718.160156 158.273438 718.160156 Z M 245.519531 700.753906 C 248.320312 699.84375 250.648438 699.167969 252.917969 698.332031 C 293.519531 683.390625 334.285156 668.871094 374.644531 653.296875 C 397.976562 644.289062 420.828125 633.953125 443.542969 623.449219 C 453.863281 618.675781 463.601562 612.464844 473.109375 606.160156 C 485.371094 598.03125 495.617188 587.65625 503.136719 574.898438 C 507.148438 568.089844 510.636719 560.988281 510.527344 552.714844 C 510.515625 551.683594 511.46875 550.636719 511.972656 549.597656 C 512.300781 549.6875 512.628906 549.78125 512.957031 549.871094 C 513.058594 551.730469 513.523438 553.652344 513.195312 555.429688 C 512.539062 559.019531 511.761719 562.648438 510.476562 566.054688 C 505.261719 579.933594 495.90625 590.863281 484.949219 600.464844 C 471.835938 611.953125 456.808594 620.582031 441.058594 627.785156 C 421.144531 636.898438 400.914062 645.328125 380.824219 654.054688 C 379.542969 654.609375 378.277344 655.195312 375.933594 656.246094 C 377.96875 657.847656 379.367188 658.742188 380.519531 659.886719 C 390.433594 669.667969 402.25 676.773438 414.609375 682.734375 C 449.429688 699.523438 486.089844 704 524.050781 697.171875 C 542.453125 693.863281 559.6875 687.257812 575.085938 676.394531 C 588.273438 667.09375 598.695312 655.472656 604.667969 640.28125 C 608.144531 631.449219 609.738281 622.277344 608.957031 612.734375 C 608.277344 612.472656 607.796875 612.199219 607.28125 612.101562 C 598.769531 610.457031 591.574219 606.171875 584.765625 601.054688 C 580.957031 598.195312 577.054688 595.460938 573.171875 592.699219 C 572.410156 592.160156 571.542969 591.390625 570.722656 591.394531 C 569.402344 591.402344 568.816406 590.785156 568.15625 589.859375 C 567.621094 589.109375 566.910156 588.433594 566.148438 587.914062 C 559.605469 583.492188 552.839844 579.453125 545.40625 576.695312 C 541.214844 575.140625 536.871094 574.226562 532.097656 573.894531 C 531.734375 576.957031 531.503906 579.777344 531.050781 582.5625 C 529.460938 592.308594 525.839844 601.394531 522.007812 610.429688 C 517.191406 621.777344 508.882812 630.332031 499.964844 638.417969 C 499.457031 638.875 498.355469 638.683594 497.535156 638.792969 C 497.644531 638.066406 497.507812 637.140625 497.910156 636.652344 C 498.941406 635.402344 500.199219 634.332031 501.386719 633.210938 C 506.132812 628.714844 510.914062 624.277344 514.386719 618.625 C 520.433594 608.796875 524.40625 598.132812 527.425781 587.0625 C 529.378906 579.902344 529.347656 572.539062 529.703125 565.230469 C 530.039062 558.261719 528.414062 551.78125 524.109375 546.089844 C 523.574219 545.382812 523.714844 544.164062 523.683594 544.003906 C 516 539.566406 508.769531 535.515625 501.675781 531.242188 C 497.949219 529 494.425781 526.414062 490.875 523.886719 C 485.671875 520.183594 479.730469 518.316406 473.554688 518.898438 C 467.121094 519.5 460.855469 519.296875 454.5 518.488281 C 451.402344 518.09375 448.351562 517.96875 446.25 515.238281 C 371.5625 557.535156 297.128906 599.691406 222.429688 641.992188 C 231.355469 649.296875 235.484375 659.105469 239.503906 668.953125 C 243.597656 678.976562 245.449219 689.480469 245.519531 700.753906 Z M 478.214844 263.753906 C 474.394531 264.511719 470.335938 263.921875 466.777344 266.101562 C 453.675781 274.132812 442.21875 283.691406 436.417969 298.5625 C 429.152344 317.203125 421.285156 335.570312 412.011719 353.320312 C 409.816406 357.527344 407.988281 361.957031 406.300781 366.398438 C 402.316406 376.878906 401.597656 387.324219 407.34375 397.511719 C 407.480469 397.75 407.585938 398 407.695312 398.25 C 411.199219 406.351562 412.191406 414.65625 410.203125 423.363281 C 408.355469 431.445312 406.570312 439.5625 405.332031 447.753906 C 404.320312 454.425781 403.53125 461.222656 404.992188 468.136719 C 405.960938 468.34375 406.867188 468.625 407.789062 468.722656 C 420.203125 469.996094 432.621094 471.246094 445.125 472.511719 C 447.382812 466.5625 454.347656 464.066406 459.921875 470.164062 C 460.367188 469.671875 460.777344 469.164062 461.246094 468.71875 C 464.453125 465.683594 467.488281 465.703125 470.363281 469.121094 C 471.726562 470.746094 472.550781 472.832031 473.597656 474.71875 C 474.0625 475.566406 474.476562 476.441406 474.914062 477.304688 C 475.226562 477.21875 475.542969 477.132812 475.855469 477.050781 C 475.660156 474.6875 475.539062 472.316406 475.234375 469.972656 C 475.035156 468.421875 474.835938 466.90625 476.285156 465.894531 C 480.738281 462.78125 485.046875 459.578125 491.019531 459.742188 C 506.09375 460.152344 520.839844 457.582031 535.402344 453.984375 C 539.546875 452.960938 543.535156 451.867188 547.464844 454.148438 C 550.621094 448.433594 551.535156 448.378906 557.046875 453.222656 C 560.4375 449.859375 562.667969 449.75 566.324219 453.046875 C 567.722656 454.308594 568.945312 455.824219 569.996094 457.390625 C 571.65625 459.878906 573.066406 462.527344 574.660156 465.0625 C 575.746094 466.785156 576.867188 468.496094 578.144531 470.078125 C 579.25 471.445312 580.613281 472.570312 583.039062 472.097656 C 582.914062 470.847656 583.011719 469.613281 582.644531 468.539062 C 579.105469 458.140625 574.804688 448.15625 565.632812 441.308594 C 561.335938 438.105469 559.855469 433.863281 560.359375 428.808594 C 560.828125 424.082031 561.371094 419.339844 562.269531 414.675781 C 563.292969 409.359375 564.75 404.128906 566.019531 398.863281 C 559.945312 394.886719 558.304688 393.179688 556.757812 388.570312 C 554.402344 381.550781 554.496094 374.601562 558.199219 368.050781 C 559.796875 365.226562 561.660156 362.46875 563.839844 360.082031 C 579.511719 342.941406 598.585938 331.425781 621.238281 326.046875 C 631.308594 323.65625 641.4375 323.367188 651.574219 325.851562 C 658.21875 327.476562 663.148438 331.175781 665.835938 337.539062 C 667.472656 341.417969 668.90625 345.378906 670.445312 349.292969 C 670.730469 350.019531 671.089844 350.714844 671.695312 352.050781 C 673.28125 346.148438 674.394531 340.871094 674.570312 335.429688 C 674.902344 325.171875 671.601562 315.863281 666.742188 307.066406 C 657.039062 289.496094 643.167969 276.304688 624.871094 267.835938 C 614.636719 263.097656 604.191406 258.742188 595.050781 252.226562 C 593.027344 254.84375 591.398438 257.566406 589.195312 259.699219 C 577.378906 271.15625 563.066406 278.277344 547.320312 282.386719 C 537.460938 284.960938 527.265625 285.964844 517.054688 284.71875 C 508.578125 283.679688 500.261719 281.863281 492.738281 277.507812 C 487.738281 274.613281 483.21875 271.183594 480.097656 266.179688 C 479.601562 265.386719 478.945312 264.691406 478.214844 263.753906 Z M 66.746094 367.078125 C 83.769531 411.933594 100.53125 456.113281 117.316406 500.347656 C 119.261719 500.347656 120.753906 500.355469 122.242188 500.347656 C 173.992188 500.171875 225.738281 500 277.488281 499.816406 C 285.523438 499.792969 293.558594 499.78125 301.59375 499.695312 C 306.191406 499.644531 307.339844 498.332031 306.316406 493.976562 C 305.417969 490.152344 304.324219 486.359375 303.066406 482.632812 C 290.671875 445.90625 278.230469 409.195312 265.789062 372.484375 C 263.789062 366.582031 261.734375 360.703125 259.613281 354.550781 C 195.375 358.722656 131.375 362.878906 66.746094 367.078125 Z M 479.929688 496.015625 C 480.203125 495.941406 480.472656 495.867188 480.746094 495.792969 C 481.28125 496.28125 482.121094 496.679688 482.296875 497.273438 C 482.75 498.824219 483.113281 500.457031 483.152344 502.066406 C 483.253906 506.144531 483.152344 510.226562 483.140625 514.308594 C 483.136719 515.675781 483.1875 516.824219 484.71875 517.703125 C 490.015625 520.738281 495.289062 523.839844 500.386719 527.195312 C 508.019531 532.210938 515.710938 537.113281 524.257812 540.433594 C 539.410156 546.324219 555.027344 546.792969 570.890625 544.234375 C 584.015625 542.113281 594.558594 536.085938 602.304688 524.988281 C 609.109375 515.238281 617.738281 507.078125 626.488281 499.050781 C 632.394531 493.632812 638.03125 487.886719 643.441406 481.972656 C 649.335938 475.535156 653.445312 467.980469 654.722656 459.257812 C 655.546875 453.625 655.820312 447.898438 656.085938 442.203125 C 656.457031 434.328125 655.957031 426.355469 656.96875 418.574219 C 658.628906 405.777344 660.859375 393.027344 663.507812 380.394531 C 665.199219 372.328125 668.074219 364.507812 670.394531 356.648438 C 669.652344 354.839844 668.816406 352.875 668.035156 350.890625 C 666.347656 346.59375 664.828125 342.226562 662.976562 338.007812 C 660.886719 333.238281 657.132812 330.296875 652.097656 328.890625 C 644.097656 326.664062 636.003906 326.183594 627.839844 327.589844 C 603.179688 331.847656 582.667969 343.683594 565.847656 362.003906 C 563.402344 364.667969 561.398438 367.882812 559.816406 371.148438 C 556.910156 377.128906 557.332031 383.339844 560.066406 389.300781 C 561.632812 392.71875 563.910156 395.492188 568.222656 395.761719 C 569.320312 395.828125 570.351562 396.890625 571.304688 397.433594 C 570.023438 399.113281 568.667969 400.195312 568.230469 401.570312 C 565.195312 411.070312 563.265625 420.78125 563.148438 430.804688 C 563.109375 433.859375 563.863281 436.53125 566.445312 438.304688 C 574.308594 443.714844 578.601562 451.757812 582.46875 460.054688 C 583.894531 463.109375 584.710938 466.453125 585.71875 469.691406 C 586.28125 471.519531 585.996094 473.257812 584.355469 474.449219 C 582.734375 475.628906 580.894531 475.460938 579.371094 474.414062 C 577.71875 473.277344 576.109375 471.941406 574.855469 470.390625 C 573.414062 468.605469 572.410156 466.476562 571.167969 464.527344 C 569.492188 461.890625 567.875 459.203125 566.035156 456.679688 C 564.78125 454.960938 563.183594 453.507812 560.097656 453.441406 C 560.46875 455.058594 560.539062 456.382812 561.078125 457.484375 C 562.148438 459.675781 563.429688 461.777344 564.707031 463.867188 C 567.007812 467.625 568.570312 471.652344 569.320312 475.996094 C 569.617188 477.707031 570.433594 479.5625 568.554688 480.832031 C 567.351562 481.648438 565.804688 480.648438 564.5 477.746094 C 562.378906 473.042969 560.617188 468.175781 558.546875 463.449219 C 557.191406 460.359375 555.632812 457.34375 553.984375 454.402344 C 553.558594 453.644531 552.4375 453.277344 551.023438 452.308594 C 551.023438 454.90625 551.003906 456.644531 551.03125 458.382812 C 551.046875 459.472656 551.304688 460.585938 551.140625 461.636719 C 551.039062 462.285156 550.453125 463.039062 549.875 463.355469 C 549.589844 463.511719 548.6875 462.882812 548.304688 462.414062 C 547.898438 461.910156 547.769531 461.183594 547.527344 460.550781 C 545.648438 455.582031 543.878906 454.558594 538.90625 455.863281 C 523.585938 459.878906 508.105469 462.679688 492.171875 462.386719 C 488.148438 462.3125 484.429688 463.351562 481.109375 465.882812 C 478.960938 467.515625 477.894531 469.253906 478.144531 472.042969 C 478.347656 474.3125 478.175781 476.671875 477.734375 478.910156 C 477.542969 479.890625 476.347656 481.238281 475.46875 481.351562 C 474.621094 481.464844 473.347656 480.375 472.714844 479.492188 C 471.941406 478.421875 471.738281 476.964844 471.128906 475.757812 C 470.273438 474.070312 469.496094 472.269531 468.285156 470.859375 C 466.359375 468.613281 464.042969 468.875 462.695312 471.511719 C 461.136719 474.546875 460.324219 477.769531 461.414062 481.261719 C 463.164062 486.867188 464.375 492.597656 464.378906 498.492188 C 464.382812 504.546875 464.167969 510.601562 464.046875 516.800781 C 469.136719 516.542969 474.511719 516.269531 480.292969 515.976562 C 481.011719 509.378906 481.074219 502.714844 479.929688 496.015625 Z M 284.070312 603.957031 C 282.035156 601.71875 280.429688 599.886719 278.75 598.121094 C 269.617188 588.519531 259.34375 580.234375 248.714844 572.371094 C 235.921875 562.902344 223.117188 553.441406 210.273438 544.046875 C 209.375 543.390625 208.0625 543.003906 206.945312 543.003906 C 197.550781 543.019531 188.148438 542.929688 178.765625 543.304688 C 167.175781 543.773438 155.628906 543.53125 144.125 542.097656 C 137.359375 541.253906 130.675781 540.074219 124.558594 536.757812 C 120.089844 534.335938 117.21875 530.828125 116.234375 525.789062 C 115.078125 519.855469 115.148438 513.902344 115.710938 507.921875 C 115.921875 505.667969 116.609375 503.171875 114.042969 502.417969 C 113.667969 500.28125 113.609375 498.535156 113.039062 496.980469 C 110.042969 488.808594 106.925781 480.679688 103.824219 472.546875 C 103.351562 471.3125 102.738281 470.128906 102.25 469.054688 C 97.914062 469 97.910156 468.988281 95.128906 470.96875 C 83.703125 479.121094 75.839844 490.039062 70.632812 502.921875 C 68.789062 507.484375 67.488281 512.265625 68.445312 517.265625 C 69.546875 523.035156 71.21875 528.636719 74.054688 533.820312 C 78.644531 542.222656 85.21875 548.925781 92.730469 554.644531 C 102.476562 562.066406 112.484375 569.136719 122.386719 576.34375 C 135.921875 586.191406 149.476562 596.011719 163.007812 605.871094 C 177.589844 616.496094 190.589844 628.867188 202.933594 641.972656 C 204.503906 643.636719 206.199219 645.179688 207.941406 646.882812 C 233.277344 632.597656 258.378906 618.441406 284.070312 603.957031 Z M 118.449219 508.03125 C 117.503906 515.253906 117.214844 521.914062 119.875 528.195312 C 120.808594 530.394531 122.910156 532.527344 125.027344 533.695312 C 128.4375 535.570312 132.199219 537.082031 135.996094 537.914062 C 144.375 539.753906 152.90625 540.714844 161.511719 540.667969 C 178.660156 540.574219 195.816406 540.28125 212.960938 540.433594 C 225.476562 540.539062 238.023438 540.777344 250.488281 541.777344 C 264.167969 542.871094 277.773438 544.933594 291.417969 546.519531 C 309.910156 548.664062 328.351562 547.9375 346.753906 545.417969 C 361.875 543.34375 374.804688 536.886719 385.238281 525.78125 C 388.175781 522.65625 390.398438 518.835938 392.746094 515.203125 C 393.769531 513.621094 394.335938 511.707031 392.5625 509.367188 C 301.613281 508.921875 210.3125 508.476562 118.449219 508.03125 Z M 461.910156 111.613281 C 461.722656 112.433594 461.371094 113.597656 461.203125 114.785156 C 460.476562 119.898438 459.566406 125.003906 459.148438 130.144531 C 457.898438 145.539062 458.109375 160.871094 462.023438 175.949219 C 464.296875 184.703125 467.574219 193.027344 473.035156 200.34375 C 478.777344 208.035156 486.078125 213.449219 495.707031 215.148438 C 503.605469 216.539062 511.152344 215.003906 518.410156 211.847656 C 528.183594 207.59375 536.335938 201.085938 543.6875 193.496094 C 544.410156 192.75 544.996094 191.871094 545.546875 191.175781 C 545.375 190.757812 545.351562 190.609375 545.265625 190.519531 C 544.890625 190.128906 544.511719 189.742188 544.105469 189.382812 C 538.53125 184.464844 536.035156 178.285156 536.34375 170.878906 C 536.566406 165.5 537.746094 160.382812 540.046875 155.519531 C 542.199219 150.972656 544.625 146.53125 546.464844 141.863281 C 548.148438 137.589844 549.28125 133.09375 550.527344 128.660156 C 551.445312 125.398438 550.296875 122.597656 547.605469 120.785156 C 542.632812 117.433594 538.695312 113.261719 536.394531 107.933594 C 532.550781 106.992188 529.28125 107.070312 525.972656 109.144531 C 524.402344 110.128906 522.039062 110.207031 520.0625 110.113281 C 516.011719 109.917969 511.984375 109.328125 507.816406 108.886719 C 501.242188 115.503906 492.894531 114.472656 484.257812 113.605469 C 487.386719 119.753906 487.734375 125.722656 485.828125 131.820312 C 484.976562 134.542969 484.175781 137.292969 483.089844 139.921875 C 481.128906 144.660156 478.96875 149.3125 476.84375 154.105469 C 478.980469 156.390625 481.046875 158.601562 483.136719 160.835938 C 481.582031 162.425781 480.476562 161.738281 479.464844 160.683594 C 478.242188 159.410156 477.0625 158.089844 475.875 156.777344 C 473.417969 154.070312 473.519531 154.117188 475.085938 150.765625 C 477.386719 145.84375 479.683594 140.90625 481.699219 135.867188 C 483.472656 131.429688 484.582031 126.800781 484.164062 121.925781 C 483.546875 114.753906 479.253906 110.722656 472.09375 110.875 C 469.9375 110.917969 467.792969 111.398438 465.628906 111.597656 C 464.492188 111.699219 463.339844 111.613281 461.910156 111.613281 Z M 271.992188 746.769531 C 279.609375 745.703125 287.4375 744.785156 295.203125 743.472656 C 304.691406 741.871094 313.367188 737.886719 321.9375 733.679688 C 330.152344 729.648438 338.59375 726.179688 347.707031 724.832031 C 357.121094 723.445312 366.582031 722.347656 376.027344 721.144531 C 383.851562 720.148438 391.671875 719.125 399.511719 718.222656 C 406.839844 717.382812 411.226562 712.996094 413.941406 706.539062 C 414.675781 704.789062 415.304688 702.984375 415.820312 701.15625 C 417.640625 694.742188 415.929688 689.144531 411.003906 684.90625 C 407.101562 681.546875 402.570312 678.941406 397.457031 677.648438 C 392.480469 676.390625 387.394531 676.382812 382.464844 677.457031 C 373.96875 679.3125 365.515625 681.425781 357.140625 683.773438 C 344.148438 687.414062 331.085938 690.628906 317.613281 691.882812 C 309.621094 692.621094 301.601562 693.125 293.640625 694.125 C 278.867188 695.980469 265.347656 700.792969 254.546875 711.660156 C 248.828125 717.414062 243.996094 723.78125 240.800781 731.257812 C 238.691406 736.195312 240.605469 740.46875 245.578125 742.515625 C 247.078125 743.132812 248.660156 743.707031 250.253906 743.929688 C 257.378906 744.9375 264.519531 745.804688 271.992188 746.769531 Z M 440.144531 284.265625 C 438.8125 285.375 437.464844 286.273438 436.382812 287.429688 C 432.019531 292.089844 427.492188 296.632812 423.476562 301.585938 C 413.832031 313.488281 406.441406 326.820312 399.867188 340.59375 C 395.125 350.53125 390.914062 360.726562 386 370.574219 C 382.242188 378.101562 378.117188 385.496094 373.515625 392.535156 C 366.808594 402.792969 357.429688 408.804688 344.691406 409.027344 C 336.441406 409.167969 330.171875 413.121094 326.183594 420.449219 C 325.082031 422.480469 324.109375 424.585938 322.925781 426.566406 C 320.074219 431.355469 315.945312 433.671875 310.273438 432.78125 C 308.527344 432.507812 306.785156 432.183594 305.027344 431.996094 C 300.125 431.46875 296.660156 433.34375 294.316406 437.722656 C 293.625 439.019531 292.96875 440.335938 292.179688 441.867188 C 293.550781 445.867188 294.992188 450.082031 296.585938 454.738281 C 300.085938 453.8125 303.34375 452.992188 306.578125 452.085938 C 315.207031 449.660156 323.757812 446.882812 332.480469 444.835938 C 342.617188 442.457031 351.894531 444.753906 359.949219 451.53125 C 363.070312 454.160156 366.207031 456.773438 369.359375 459.367188 C 378.949219 467.269531 390.320312 467.90625 401.910156 467.710938 C 401.910156 462.730469 401.707031 458.109375 401.949219 453.507812 C 402.503906 442.859375 405.320312 432.589844 407.617188 422.25 C 409.28125 414.773438 408.464844 407.6875 405.707031 400.695312 C 405.058594 399.054688 404.316406 397.441406 403.546875 395.855469 C 400.253906 389.089844 399.929688 382.019531 401.175781 374.742188 C 402.6875 365.894531 406.515625 357.902344 410.539062 350.042969 C 418.417969 334.65625 425.433594 318.90625 431.746094 302.816406 C 434.164062 296.648438 437.199219 290.722656 440.144531 284.265625 Z M 448.132812 509.21875 C 448.386719 506.953125 448.820312 505.339844 448.695312 503.773438 C 448.03125 495.375 447.179688 486.988281 446.5 478.59375 C 446.335938 476.558594 445.230469 475.648438 443.46875 475.371094 C 439.457031 474.738281 435.441406 474.117188 431.410156 473.664062 C 428.308594 473.3125 425.167969 473.292969 422.054688 473.007812 C 412.171875 472.105469 402.308594 470.964844 392.414062 470.261719 C 382.933594 469.589844 374.207031 467.25 366.871094 460.886719 C 363.886719 458.300781 360.839844 455.792969 357.773438 453.304688 C 350.8125 447.65625 342.800781 445.21875 334.101562 447.351562 C 321.902344 450.335938 309.871094 454.023438 297.492188 457.492188 C 298.339844 459.90625 298.996094 461.789062 299.710938 463.828125 C 304.199219 462.566406 308.351562 461.285156 312.566406 460.25 C 317.582031 459.019531 322.652344 458.007812 327.695312 456.898438 C 328.984375 456.613281 330.078125 456.6875 330.695312 458.816406 C 320.402344 460.625 310.511719 463.164062 300.59375 466.71875 C 301.765625 470.089844 302.8125 473.117188 303.960938 476.421875 C 309.039062 475.042969 313.738281 473.734375 318.453125 472.496094 C 320.824219 471.878906 323.210938 471.335938 325.609375 470.859375 C 326.992188 470.585938 328.316406 470.6875 328.679688 472.503906 C 320.789062 474.628906 313 476.722656 305.058594 478.859375 C 305.5 481.714844 306.085938 483.992188 308.648438 485.546875 C 310.804688 484.898438 313.125 484.136719 315.480469 483.511719 C 317.691406 482.921875 319.675781 480.929688 322.226562 482.105469 C 322.226562 482.601562 322.308594 483.058594 322.214844 483.097656 C 317.660156 485.003906 313.089844 486.871094 308.199219 488.878906 C 308.671875 490.277344 309.175781 491.75 309.632812 493.085938 C 314.304688 494.070312 318.414062 492.78125 322.527344 492.0625 C 325.734375 491.5 328.773438 491.613281 331.722656 492.875 C 336.21875 494.792969 340.785156 496.609375 345.113281 498.863281 C 353.078125 503.011719 361.28125 504.109375 370.019531 502.015625 C 379.144531 499.828125 388.367188 499.898438 397.582031 501.480469 C 404.148438 502.605469 410.667969 504.035156 417.253906 505.019531 C 427.320312 506.53125 437.429688 507.777344 448.132812 509.21875 Z M 394.003906 503.625 C 394.445312 505.269531 394.503906 506.28125 394.96875 507.054688 C 397.898438 511.964844 395.785156 516.167969 393.226562 520.324219 C 392.726562 521.132812 392.199219 521.933594 391.605469 522.675781 C 382.21875 534.371094 370.5625 542.621094 355.855469 546.308594 C 346.433594 548.667969 336.839844 549.832031 327.179688 550.03125 C 316.992188 550.238281 306.761719 550.308594 296.601562 549.652344 C 286.707031 549.011719 276.863281 547.519531 267.03125 546.148438 C 250.277344 543.808594 233.394531 543.734375 216.546875 543.085938 C 215.859375 543.058594 215.15625 543.316406 213.929688 543.535156 C 226.941406 553.050781 239.460938 562.15625 251.929688 571.335938 C 264.4375 580.542969 276.15625 590.648438 286.539062 602.503906 C 330.292969 577.71875 373.789062 553.085938 417.453125 528.355469 C 414.542969 524.765625 411.480469 522.296875 407.703125 520.914062 C 402.398438 518.972656 400.03125 515.191406 400.015625 509.683594 C 400.011719 508.082031 399.824219 506.480469 399.714844 504.777344 C 397.871094 504.402344 396.308594 504.089844 394.003906 503.625 Z M 209.636719 675.675781 C 206.300781 677.039062 203.273438 678.183594 200.324219 679.503906 C 181.390625 687.960938 161.929688 687.046875 142.273438 682.863281 C 141.164062 682.628906 140.128906 682.265625 140.496094 680.195312 C 141.828125 680.265625 143.238281 680.210938 144.609375 680.429688 C 147.960938 680.96875 151.285156 681.71875 154.644531 682.230469 C 169.75 684.539062 184.476562 683.285156 198.699219 677.414062 C 201.925781 676.082031 205.210938 674.894531 208.796875 673.519531 C 207.585938 670.808594 206.429688 668.078125 205.152344 665.40625 C 203.835938 662.644531 202.398438 659.941406 201.183594 657.546875 C 196.988281 659.140625 193.292969 661.039062 189.375 661.90625 C 183.550781 663.195312 177.589844 664.003906 171.644531 664.574219 C 157.925781 665.890625 144.171875 664.941406 130.4375 664.742188 C 127.039062 664.695312 123.648438 664.242188 120.25 664.152344 C 116.128906 664.046875 112.003906 664.125 107.875 664.125 C 107.875 664.382812 107.824219 664.539062 107.882812 664.621094 C 108.117188 664.953125 108.359375 665.289062 108.640625 665.574219 C 115.839844 672.902344 119.542969 681.800781 120 691.949219 C 120.40625 700.976562 118.210938 709.226562 111.292969 715.660156 C 110.863281 716.0625 110.566406 716.605469 109.902344 717.496094 C 111.371094 717.625 112.277344 717.78125 113.1875 717.777344 C 120.535156 717.71875 127.914062 718.035156 135.222656 717.464844 C 151.355469 716.195312 167.464844 714.574219 183.566406 712.902344 C 195.5 711.65625 206.859375 708.742188 215.910156 699.734375 C 214.941406 691.589844 212.714844 683.546875 209.636719 675.675781 Z M 613.238281 599.652344 C 624.445312 593.503906 630.980469 583.652344 633.625 571.003906 C 635.945312 559.902344 635.257812 548.816406 633.253906 537.777344 C 631.210938 526.5 629.925781 515.195312 630.898438 503.714844 C 631.003906 502.464844 630.824219 501.191406 630.738281 499.03125 C 627.402344 502.054688 624.761719 504.371094 622.203125 506.777344 C 614.753906 513.789062 608.171875 521.5625 601.992188 529.707031 C 597.566406 535.542969 592.171875 540.304688 585.246094 542.953125 C 570.277344 548.683594 554.808594 549.667969 539.078125 547.265625 C 535.101562 546.65625 531.207031 545.535156 526.835938 544.550781 C 527.980469 547.039062 529.050781 549.046875 529.832031 551.164062 C 530.667969 553.429688 531.234375 555.792969 531.964844 558.285156 C 563.679688 562.515625 590.351562 576.714844 613.238281 599.652344 Z M 582.246094 238.007812 C 580.511719 235.957031 578.699219 234.734375 578.273438 233.136719 C 576.867188 227.875 573.820312 225.492188 568.363281 224.621094 C 562.148438 223.628906 559.746094 218.8125 561.484375 212.65625 C 562.066406 210.585938 563.078125 208.628906 563.972656 206.652344 C 565.507812 203.25 565.390625 202.023438 562.859375 199.328125 C 559.90625 196.1875 556.28125 194.183594 552.15625 192.886719 C 549.734375 192.125 548.148438 192.644531 546.460938 194.507812 C 541.519531 199.96875 535.949219 204.753906 529.777344 208.804688 C 521.335938 214.347656 512.269531 218.09375 501.996094 218.324219 C 501.214844 218.339844 500.4375 218.476562 499.3125 218.589844 C 499.808594 223.765625 500.113281 228.753906 500.816406 233.6875 C 501.277344 236.925781 501.589844 240.09375 500.789062 243.289062 C 500.195312 245.65625 499.632812 248.046875 498.832031 250.351562 C 498.066406 252.554688 498.722656 254.148438 500.632812 255.113281 C 502.679688 256.144531 504.816406 257.097656 507.023438 257.695312 C 514.542969 259.726562 522.234375 260.695312 530.023438 260.460938 C 547.953125 259.917969 564.878906 256.441406 578.425781 243.402344 C 580.179688 241.71875 582.175781 240.226562 582.246094 238.007812 Z M 117.289062 693.679688 C 117.234375 682.734375 112.390625 672.074219 104.6875 665.726562 C 103.113281 664.429688 101.550781 663.191406 99.277344 663.253906 C 91.484375 663.464844 83.796875 664.195312 76.753906 667.925781 C 67.90625 672.605469 61.585938 678.984375 62.378906 689.96875 C 62.398438 690.238281 62.476562 690.558594 62.363281 690.773438 C 60.988281 693.40625 62.679688 695.484375 63.691406 697.605469 C 64.695312 699.710938 65.3125 702.351562 68.523438 702.332031 C 68.902344 702.328125 69.261719 703.058594 69.671875 703.40625 C 72.355469 705.65625 74.871094 708.167969 77.78125 710.078125 C 84.417969 714.445312 92.101562 715.664062 99.78125 716.867188 C 103 717.375 105.613281 716.476562 108.109375 714.644531 C 111.035156 712.496094 113.167969 709.722656 114.660156 706.464844 C 116.554688 702.324219 117.476562 697.972656 117.289062 693.679688 Z M 202.277344 653.53125 C 211.570312 670.992188 218.925781 688.59375 219.347656 708.757812 C 226.816406 706.5 233.929688 704.339844 241.046875 702.203125 C 242.519531 701.757812 242.839844 700.679688 242.734375 699.351562 C 242.433594 695.421875 242.347656 691.457031 241.761719 687.570312 C 239.984375 675.722656 235.476562 664.804688 229.632812 654.449219 C 227.917969 651.414062 225.542969 648.691406 223.164062 646.105469 C 221.039062 643.796875 218.667969 643.492188 216.171875 644.957031 C 211.617188 647.636719 207.167969 650.5 202.277344 653.53125 Z M 309.480469 496.433594 C 309.605469 499.003906 308.40625 501.023438 305.800781 501.902344 C 304.675781 502.277344 303.40625 502.34375 302.203125 502.351562 C 269.53125 502.535156 236.859375 502.734375 204.183594 502.851562 C 177.5 502.941406 150.816406 502.933594 124.132812 502.964844 C 122.421875 502.96875 120.707031 502.96875 118.015625 502.96875 C 119.21875 504.253906 119.609375 505.027344 120.183594 505.207031 C 121.058594 505.476562 122.0625 505.371094 123.015625 505.375 C 199.117188 505.707031 275.21875 506.039062 351.320312 506.351562 C 353.503906 506.363281 355.691406 506.167969 357.878906 506.066406 C 352.472656 505.324219 347.703125 503.015625 342.890625 500.78125 C 338.703125 498.839844 334.519531 496.835938 330.191406 495.253906 C 328.25 494.539062 325.933594 494.480469 323.832031 494.65625 C 319.242188 495.039062 314.683594 495.769531 309.480469 496.433594 Z M 584.578125 49.027344 C 582.480469 41.425781 579.828125 34.207031 574.320312 28.566406 C 568.613281 22.726562 561.484375 18.9375 553.867188 16.332031 C 550.359375 15.132812 546.375 14.789062 542.636719 14.90625 C 529.082031 15.335938 517.433594 20.914062 506.828125 28.988281 C 506.328125 29.371094 505.960938 29.929688 504.898438 31.113281 C 507.449219 30.535156 509.117188 30.007812 510.820312 29.804688 C 516.464844 29.117188 522.160156 27.804688 527.773438 28.070312 C 545.21875 28.890625 561.179688 34.847656 576.167969 43.574219 C 579.050781 45.25 581.777344 47.203125 584.578125 49.027344 Z M 498.308594 31.980469 C 499.613281 31.535156 500.34375 31.507812 500.691406 31.132812 C 505.097656 26.363281 510.585938 23.070312 516.085938 19.820312 C 525.597656 14.210938 535.949219 11.761719 546.945312 12.253906 C 557.085938 12.707031 565.210938 18.035156 573.039062 23.753906 C 575.519531 25.566406 577.867188 27.886719 579.5 30.46875 C 584.167969 37.851562 587.863281 45.707031 589.449219 54.414062 C 592.066406 68.769531 591.632812 83.085938 589.074219 97.394531 C 588.847656 98.65625 588.699219 99.933594 588.429688 101.816406 C 589.878906 101.007812 590.6875 100.554688 591.5 100.113281 C 592.332031 99.65625 593.128906 99.089844 594.011719 98.769531 C 595.894531 98.085938 596.625 96.808594 596.945312 94.835938 C 598.941406 82.519531 599.230469 70.214844 596.878906 57.921875 C 594.140625 43.601562 588.761719 30.515625 577.964844 20.292969 C 566.046875 9.007812 551.890625 5.109375 535.808594 8.515625 C 521.449219 11.558594 509.898438 19.4375 499.785156 29.71875 C 499.359375 30.15625 499.097656 30.753906 498.308594 31.980469 Z M 366.234375 678.171875 C 364.632812 676.730469 363.625 675.660156 362.457031 674.804688 C 359.496094 672.632812 356.332031 670.714844 353.492188 668.398438 C 350.75 666.160156 348.191406 665.976562 344.878906 667.226562 C 321.203125 676.167969 297.464844 684.925781 273.75 693.765625 C 273.070312 694.019531 272.476562 694.488281 271.910156 694.816406 C 272.535156 696.78125 273.632812 696.078125 274.652344 695.792969 C 278.710938 694.664062 282.710938 693.101562 286.851562 692.53125 C 296.40625 691.210938 306.019531 690.230469 315.632812 689.375 C 332.683594 687.851562 349.0625 683.40625 366.234375 678.171875 Z M 566.238281 148.296875 C 566.269531 154.070312 566.488281 158.007812 568.40625 161.613281 C 570.730469 165.988281 574.847656 168.101562 579.660156 166.980469 C 582.136719 166.398438 584.707031 165.519531 586.796875 164.121094 C 590.164062 161.871094 593.492188 159.378906 596.273438 156.453125 C 604.597656 147.695312 610.0625 137.265625 612.917969 125.535156 C 614.3125 119.800781 614.875 113.964844 613.296875 108.164062 C 611.148438 100.261719 605.242188 97.203125 597.601562 100.25 C 594.734375 101.390625 591.886719 102.964844 589.539062 104.945312 C 575.527344 116.730469 567.964844 131.929688 566.238281 148.296875 Z M 393.0625 674.085938 C 386.085938 668.1875 379.699219 662.785156 372.972656 657.097656 C 366.664062 659.449219 359.984375 661.933594 353.082031 664.503906 C 353.636719 665.222656 353.8125 665.589844 354.109375 665.808594 C 358.78125 669.300781 363.417969 672.855469 368.203125 676.1875 C 369.144531 676.84375 370.800781 677.074219 371.933594 676.769531 C 378.652344 674.976562 385.460938 673.996094 393.0625 674.085938 Z M 445.34375 512.480469 C 445.234375 512.226562 445.125 511.972656 445.015625 511.71875 C 430.902344 509.703125 416.792969 507.6875 402.234375 505.609375 C 402.496094 508.09375 402.613281 510.246094 402.976562 512.347656 C 403.644531 516.199219 406.800781 518.644531 410.785156 518.464844 C 414.035156 518.316406 417.277344 517.984375 420.53125 517.859375 C 424.992188 517.679688 429.460938 516.789062 433.914062 518.007812 C 434.511719 518.171875 435.328125 518.117188 435.859375 517.828125 C 439.050781 516.101562 442.1875 514.273438 445.34375 512.480469 Z M 599.691406 57.070312 C 599.820312 57.859375 599.746094 58.414062 599.980469 58.621094 C 600.441406 59.03125 601.058594 59.273438 601.636719 59.535156 C 603.726562 60.488281 606.03125 61.125 607.894531 62.402344 C 621.097656 71.453125 630.140625 83.542969 633.621094 99.304688 C 634.875 104.988281 635.304688 110.859375 635.90625 116.667969 C 636.144531 118.949219 636.867188 120.699219 638.8125 122.144531 C 645.550781 93.558594 626.066406 63.695312 599.691406 57.070312 Z M 447.769531 135.292969 C 448.199219 130.25 446.59375 126.230469 444.554688 122.378906 C 439.023438 111.925781 437.304688 100.847656 438.941406 89.203125 C 439.40625 85.882812 440.035156 82.578125 440.632812 78.992188 C 429.613281 98.730469 433.769531 123.78125 447.769531 135.292969 Z M 585.164062 100.886719 C 580.347656 101.964844 577.101562 104.980469 574.453125 108.621094 C 565.625 120.753906 560.945312 134.242188 561.632812 149.371094 C 561.714844 151.191406 562.238281 152.992188 562.558594 154.804688 C 562.910156 154.78125 563.261719 154.753906 563.609375 154.726562 C 563.609375 152.222656 563.351562 149.683594 563.652344 147.210938 C 565.515625 132.019531 571.941406 118.914062 582.335938 107.765625 C 584.21875 105.75 585.191406 103.683594 585.164062 100.886719 Z M 631.398438 237.972656 C 631.132812 236.902344 631.09375 236.367188 630.867188 235.925781 C 630.601562 235.414062 630.175781 234.984375 629.820312 234.519531 C 629.398438 235.089844 628.675781 235.628906 628.609375 236.234375 C 628.375 238.453125 629.539062 240.007812 631.761719 240.132812 C 633.328125 240.21875 635.210938 240.15625 636.457031 239.367188 C 639.28125 237.585938 642.125 235.621094 644.375 233.1875 C 648.765625 228.425781 650.296875 222.316406 651.242188 216.074219 C 652.796875 205.757812 651.390625 196.046875 645.195312 187.371094 C 642.527344 183.636719 639.503906 180.242188 634.882812 177.261719 C 638.03125 181.089844 640.902344 184.023438 643.132812 187.382812 C 651.59375 200.117188 650.890625 213.5 645.203125 226.984375 C 643.480469 231.066406 640.40625 234.242188 636.433594 236.324219 C 634.960938 237.09375 633.234375 237.386719 631.398438 237.972656 Z M 500.210938 258.34375 C 499.332031 257.617188 498.28125 256.765625 497.25 255.894531 C 495.230469 254.195312 494.28125 254.023438 493.0625 256.230469 C 490.980469 260.003906 489.261719 264.003906 487.738281 268.042969 C 487.378906 269 488.050781 270.867188 488.875 271.648438 C 490.671875 273.359375 492.808594 274.75 495.230469 275.554688 C 496.917969 269.71875 498.496094 264.265625 500.210938 258.34375 Z M 463.230469 109.585938 C 463.632812 109.492188 464.039062 109.402344 464.441406 109.308594 C 456.257812 78.207031 465.292969 53.6875 492.171875 35.871094 C 490.804688 36.222656 489.527344 36.625 488.414062 37.304688 C 481.503906 41.542969 475.464844 46.777344 470.832031 53.46875 C 463.191406 64.519531 459.589844 76.855469 459.375 90.242188 C 459.289062 95.566406 459.570312 100.839844 461.328125 105.921875 C 461.769531 107.207031 462.585938 108.367188 463.230469 109.585938 Z M 515.621094 281.414062 C 517 275.328125 518.386719 269.222656 519.796875 263.011719 C 518.613281 262.8125 517.683594 262.65625 516.757812 262.507812 C 513.367188 261.96875 512.949219 261.941406 511.753906 265.003906 C 510.535156 268.128906 509.691406 271.441406 509.066406 274.746094 C 507.929688 280.746094 510.214844 281.238281 514.234375 281.589844 C 514.617188 281.621094 515.019531 281.496094 515.621094 281.414062 Z M 506.019531 279.8125 C 506.191406 273.003906 507.648438 267.164062 510.472656 261.378906 C 507.761719 260.714844 505.328125 260.121094 502.539062 259.441406 C 501.34375 263.585938 500.207031 267.320312 499.199219 271.09375 C 498.71875 272.894531 498.488281 274.761719 498.09375 276.882812 C 500.742188 277.863281 503.109375 278.738281 506.019531 279.8125 Z M 548.808594 279.320312 C 550.425781 272.988281 550.609375 267.175781 548.867188 261.148438 C 546.78125 261.582031 544.96875 261.957031 543.101562 262.34375 C 543.101562 268.460938 543.101562 274.34375 543.101562 280.558594 C 545.195312 280.101562 547.019531 279.710938 548.808594 279.320312 Z M 559.304688 258.507812 C 560.503906 263.699219 561.625 268.53125 562.835938 273.757812 C 565.421875 272.570312 567.835938 271.464844 570.480469 270.253906 C 569.019531 265.238281 568.816406 260.128906 565.039062 256.179688 C 562.957031 257.023438 560.992188 257.820312 559.304688 258.507812 Z M 566.902344 570.835938 C 565.449219 574.921875 564.148438 578.582031 562.800781 582.367188 C 565.21875 583.949219 567.332031 585.332031 569.855469 586.980469 C 571.90625 582.851562 573.746094 579.144531 575.742188 575.128906 C 572.722656 573.664062 570.058594 572.367188 566.902344 570.835938 Z M 573.140625 251.449219 C 571.113281 252.703125 569.421875 253.742188 568.242188 254.476562 C 569.9375 259.40625 571.460938 263.828125 573.105469 268.605469 C 575.324219 267.140625 577.417969 265.753906 579.578125 264.328125 C 578.878906 259.257812 577.382812 254.925781 573.140625 251.449219 Z M 528.308594 263.261719 C 527.753906 269.730469 527.230469 275.851562 526.691406 282.210938 C 528.882812 282.167969 531.058594 283.054688 531.824219 280.507812 C 533.492188 274.953125 534.445312 269.289062 533.777344 263.261719 C 531.917969 263.261719 530.34375 263.261719 528.308594 263.261719 Z M 560.113281 275.058594 C 558.976562 269.542969 559.144531 264.214844 556.167969 259.433594 C 554.605469 259.867188 553.214844 260.253906 552.164062 260.542969 C 552.164062 266.542969 552.164062 272.238281 552.164062 278.371094 C 554.949219 277.210938 557.285156 276.238281 560.113281 275.058594 Z M 484.683594 267.542969 C 486.027344 264.316406 486.988281 261.320312 488.480469 258.621094 C 489.941406 255.980469 491.945312 253.632812 493.679688 251.199219 C 490.335938 247.1875 489.21875 247.171875 486.652344 251.085938 C 485.3125 253.121094 483.960938 255.171875 482.832031 257.328125 C 479.394531 263.894531 480.027344 262.253906 484.683594 267.542969 Z M 576.101562 249.636719 C 578.25 253.574219 580.445312 257.601562 582.988281 262.265625 C 584.179688 260.398438 585.910156 258.917969 585.957031 257.382812 C 586.105469 252.511719 584.503906 248.027344 581.664062 243.859375 C 579.539062 246.070312 577.710938 247.96875 576.101562 249.636719 Z M 620.96875 164.007812 C 621.246094 164.097656 621.523438 164.1875 621.800781 164.273438 C 623.9375 160.246094 626.101562 156.226562 628.210938 152.1875 C 631.921875 145.082031 635.125 137.773438 637.292969 130.035156 C 637.867188 127.992188 638.097656 126.183594 635.8125 124.683594 C 635.609375 125.429688 635.441406 125.921875 635.347656 126.429688 C 633.875 134.210938 631.449219 141.589844 627.191406 148.382812 C 625.121094 151.683594 623.660156 155.390625 622.132812 159 C 621.472656 160.554688 621.339844 162.332031 620.96875 164.007812 Z M 577.730469 592.53125 C 579.972656 588.09375 581.957031 584.171875 584.097656 579.9375 C 581.804688 578.703125 579.972656 577.71875 577.878906 576.585938 C 575.875 580.691406 574.050781 584.425781 572.09375 588.433594 C 573.804688 589.679688 575.410156 590.84375 577.730469 592.53125 Z M 582.460938 240.464844 C 586.261719 245.207031 588.019531 250.40625 588.101562 256.484375 C 591.289062 253.25 592.238281 251.050781 592.578125 246.675781 C 593.050781 240.5625 589.015625 237.769531 582.460938 240.464844 Z M 584.753906 597.394531 C 587.851562 593.175781 589.773438 588.867188 591.234375 584.148438 C 589.460938 583.101562 587.992188 582.230469 586.347656 581.257812 C 584.15625 585.613281 582.109375 589.675781 579.917969 594.027344 C 581.445312 595.089844 582.945312 596.132812 584.753906 597.394531 Z M 523.363281 282.316406 C 525.269531 275.925781 525.835938 265.519531 524.066406 262.476562 C 519.71875 268.507812 520.140625 275.394531 518.21875 282.085938 C 520.355469 282.183594 521.90625 282.25 523.363281 282.316406 Z M 534.96875 281.222656 C 539.171875 281.484375 539.816406 281.347656 540.132812 279.109375 C 540.886719 273.769531 540.785156 268.40625 540.300781 262.785156 C 538.886719 262.90625 537.882812 262.988281 536.929688 263.066406 C 536.253906 269.300781 535.613281 275.261719 534.96875 281.222656 Z M 598.316406 589.964844 C 596.460938 588.324219 595.425781 586.71875 593.5 586.390625 C 591.371094 590.808594 589.34375 595.007812 587.339844 599.167969 C 590.367188 601.785156 592.097656 601.75 593.871094 598.757812 C 595.5 596.007812 596.777344 593.042969 598.316406 589.964844 Z M 508.324219 68.96875 C 506.199219 71.980469 505.472656 75.410156 504.902344 78.855469 C 503.511719 87.277344 504.613281 95.308594 508.953125 102.761719 C 509.910156 104.410156 510.945312 106.046875 513.730469 106.875 C 511.167969 100.1875 507.484375 94.792969 506.660156 88.144531 C 505.84375 81.527344 507.050781 75.320312 508.324219 68.96875 Z M 550.050781 564.496094 C 547.867188 564.058594 545.777344 563.640625 543.617188 563.207031 C 542.277344 566.257812 541.042969 569.082031 539.703125 572.144531 C 542.152344 572.8125 544.324219 573.40625 546.441406 573.984375 C 548.730469 571.082031 549.953125 568.164062 550.050781 564.496094 Z M 461.023438 491.476562 C 460.492188 489.152344 459.96875 486.875 459.371094 484.265625 C 456.152344 484.65625 453.390625 484.992188 450.351562 485.359375 C 450.554688 487.582031 450.722656 489.398438 450.914062 491.476562 C 454.417969 491.476562 457.496094 491.476562 461.023438 491.476562 Z M 605.363281 608.839844 C 606.273438 606.839844 607.152344 605.171875 607.8125 603.425781 C 609.382812 599.253906 609.265625 599.019531 605.210938 596.203125 C 603.5625 599.730469 601.925781 603.238281 600.121094 607.097656 C 601.914062 607.695312 603.519531 608.226562 605.363281 608.839844 Z M 553.15625 565.417969 C 551.894531 568.78125 550.726562 571.894531 549.445312 575.3125 C 550.964844 576.003906 552.488281 576.695312 554.5 577.609375 C 555.828125 574.007812 557.015625 570.796875 558.328125 567.242188 C 556.332031 566.539062 554.742188 565.976562 553.15625 565.417969 Z M 451.386719 499.410156 C 455.027344 499.871094 458.179688 500.269531 461.320312 500.667969 C 462.039062 495.675781 461.125 494.375 456.695312 494.007812 C 454.980469 493.867188 453.246094 493.984375 451.386719 493.984375 C 451.386719 495.890625 451.386719 497.449219 451.386719 499.410156 Z M 532.636719 570.828125 C 533.933594 571.082031 535.4375 571.378906 537.035156 571.695312 C 538.429688 568.539062 539.652344 565.761719 540.925781 562.878906 C 532.457031 561.5625 531.636719 562.300781 532.339844 570.101562 C 532.351562 570.230469 532.4375 570.351562 532.636719 570.828125 Z M 389.238281 506.230469 C 388.824219 503.5625 387.257812 503.058594 385.148438 503.050781 C 378.21875 503.03125 371.492188 504.308594 364.824219 506.230469 C 372.90625 506.230469 380.992188 506.230469 389.238281 506.230469 Z M 597.65625 606 C 599.367188 602.347656 600.933594 599.207031 602.320312 595.988281 C 603.15625 594.046875 602.5625 592.636719 600.285156 592.144531 C 598.199219 596.089844 596.183594 599.898438 594.066406 603.898438 C 595.109375 604.507812 596.136719 605.109375 597.65625 606 Z M 451.453125 505.738281 C 454.972656 506.695312 458.148438 507.554688 461.375 508.429688 C 461.898438 504.320312 461.523438 503.621094 458.246094 502.933594 C 456.402344 502.546875 454.503906 502.40625 452.625 502.21875 C 452.28125 502.183594 451.898438 502.460938 451.453125 502.621094 C 451.453125 503.585938 451.453125 504.511719 451.453125 505.738281 Z M 560.539062 580.789062 C 561.996094 576.875 563.253906 573.507812 564.582031 569.929688 C 563.382812 569.4375 562.5625 569.101562 561.632812 568.71875 C 559.929688 572.070312 558.308594 575.257812 556.59375 578.636719 C 558.035156 579.421875 559.054688 579.980469 560.539062 580.789062 Z M 449.953125 482.777344 C 452.933594 482.414062 455.558594 482.09375 458.21875 481.769531 C 456.773438 476.140625 453.867188 475.070312 449.214844 478.273438 C 449.425781 479.558594 449.640625 480.878906 449.953125 482.777344 Z M 451.902344 508.332031 C 450.21875 510.644531 450.539062 512.003906 452.574219 512.621094 C 455.214844 513.417969 457.921875 513.996094 460.617188 514.675781 C 461.207031 511.527344 461.25 511.40625 459.953125 510.941406 C 457.320312 510.003906 454.636719 509.210938 451.902344 508.332031 Z M 457.445312 473.441406 C 455.503906 469.003906 451.640625 468.21875 449.078125 471.273438 C 448.691406 471.730469 448.324219 472.667969 448.539062 473.0625 C 448.863281 473.648438 449.730469 474.339844 450.328125 474.304688 C 452.652344 474.171875 454.964844 473.765625 457.445312 473.441406 Z M 413.96875 521.066406 C 416.378906 523.191406 418.054688 524.671875 420.234375 526.597656 C 419.875 524.132812 419.632812 522.472656 419.375 520.695312 C 417.671875 520.8125 416.257812 520.910156 413.96875 521.066406 Z M 485.148438 100.289062 C 485.140625 104.8125 487.40625 108.953125 490.308594 109.582031 C 488.570312 106.445312 486.730469 103.132812 485.148438 100.289062 Z M 612.507812 604.246094 C 609.109375 604.605469 609.433594 607.042969 608.621094 609.109375 C 609.65625 609.304688 610.398438 609.445312 611.378906 609.628906 C 611.496094 608.679688 611.542969 607.902344 611.699219 607.148438 C 611.882812 606.289062 612.164062 605.453125 612.507812 604.246094 Z M 423.398438 524.617188 C 425.605469 523.15625 424.679688 521.792969 423.429688 520.207031 C 421.226562 521.75 422.847656 523.210938 423.398438 524.617188 Z M 426.917969 520.296875 C 428.0625 522.367188 428.0625 522.367188 430.429688 520.296875 C 429.183594 520.296875 428.121094 520.296875 426.917969 520.296875 Z M 173.847656 427.621094 C 170.773438 426.703125 167.488281 426.199219 164.675781 424.765625 C 160.363281 422.570312 160.304688 418.277344 164.519531 415.898438 C 170.992188 412.253906 177.804688 412.234375 184.339844 415.703125 C 188.386719 417.851562 188.328125 421.871094 184.507812 424.460938 C 181.355469 426.597656 177.722656 427.035156 173.847656 427.621094 Z M 174.746094 415.625 C 171.910156 416.417969 168.9375 416.90625 166.269531 418.09375 C 163.714844 419.226562 163.757812 421.375 166.289062 422.589844 C 171.769531 425.226562 177.371094 425.125 182.753906 422.269531 C 185.050781 421.054688 185.0625 419.046875 182.722656 417.980469 C 180.3125 416.882812 177.601562 416.433594 174.746094 415.625 Z M 580.34375 396.644531 C 579.507812 394.167969 580.109375 392.695312 581.734375 391.542969 C 588.789062 386.5625 596.429688 382.78125 604.78125 380.554688 C 607.820312 379.75 611.742188 381.558594 612.851562 383.96875 C 614 386.464844 613.191406 390.0625 610.445312 391.953125 C 608.144531 393.53125 605.496094 394.953125 602.800781 395.542969 C 595.476562 397.140625 587.996094 396.742188 580.34375 396.644531 Z M 584.488281 393.273438 C 590.738281 394.144531 596.859375 394.167969 602.820312 392.75 C 605.214844 392.179688 607.464844 390.640625 609.523438 389.183594 C 610.730469 388.328125 611.261719 386.65625 610.449219 385.121094 C 609.613281 383.542969 608.070312 382.703125 606.355469 383.074219 C 598.320312 384.804688 591.070312 388.300781 584.488281 393.273438 Z M 561.890625 519.195312 C 558.757812 518.601562 559.234375 516.839844 559.109375 515.5 C 558.753906 511.722656 558.8125 507.878906 558.125 504.164062 C 557.117188 498.726562 555.621094 493.375 554.28125 488 C 553.972656 486.746094 552.929688 485.476562 555.21875 484.210938 C 560.671875 495.234375 561.460938 506.917969 561.890625 519.195312 Z M 632.210938 368.21875 C 635.121094 365.585938 638.636719 363.828125 642.347656 362.710938 C 648.335938 360.914062 654.417969 360.847656 660.320312 363.28125 C 661.980469 363.964844 663.894531 364.613281 663.8125 367.460938 C 662.957031 367.265625 662.289062 367.269531 661.800781 366.976562 C 654.902344 362.792969 647.828125 363.28125 640.714844 366.234375 C 638.71875 367.066406 636.914062 368.347656 634.945312 369.257812 C 634.265625 369.570312 633.355469 369.386719 632.550781 369.425781 C 632.4375 369.027344 632.324219 368.621094 632.210938 368.21875 Z M 515.441406 168.636719 C 515.210938 169.90625 515.242188 171.300781 514.703125 172.417969 C 513.167969 175.585938 511.601562 178.773438 509.675781 181.707031 C 505.980469 187.339844 500.503906 189.96875 493.839844 190.179688 C 490.570312 190.285156 487.691406 189.15625 485.28125 186.984375 C 483.175781 185.082031 481.113281 183.113281 479.210938 181.011719 C 478.769531 180.523438 479.042969 179.390625 478.984375 178.554688 C 479.699219 178.578125 480.683594 178.304688 481.089844 178.667969 C 485.632812 182.769531 490.855469 182.101562 496.078125 180.792969 C 501.4375 179.449219 506.101562 176.664062 510.214844 173.015625 C 511.1875 172.152344 511.746094 170.835938 512.570312 169.785156 C 513.070312 169.144531 513.71875 168.609375 514.300781 168.027344 C 514.679688 168.230469 515.058594 168.433594 515.441406 168.636719 Z M 487.632812 184.78125 C 491.9375 190.433594 504.0625 187.160156 507.566406 179.027344 C 504.261719 180.449219 501.183594 182.140625 497.890625 183.082031 C 494.546875 184.042969 490.992188 184.257812 487.632812 184.78125 Z M 480.894531 121.242188 C 478.996094 123.578125 477.253906 125.726562 475.472656 127.921875 C 476.132812 128.386719 476.972656 128.976562 477.90625 129.628906 C 477.566406 130.140625 477.425781 130.550781 477.140625 130.742188 C 476.835938 130.949219 476.390625 131.027344 476.007812 131.03125 C 473.640625 131.054688 471.277344 131.046875 468.84375 131.046875 C 467.65625 129.335938 469.566406 128.820312 470.007812 128.125 C 469.242188 125.734375 468.558594 123.605469 467.773438 121.160156 C 466.398438 121.898438 464.953125 122.671875 462.660156 123.898438 C 463.140625 122.300781 463.128906 121.269531 463.636719 120.808594 C 466.832031 117.921875 470.546875 116.34375 474.824219 117.921875 C 476.957031 118.707031 479.492188 119.09375 480.894531 121.242188 Z M 531.476562 125.574219 C 529.6875 126.0625 529.6875 126.0625 524.648438 124.023438 C 525.386719 126.875 522.214844 129.449219 525.90625 132.796875 C 521.796875 132.597656 518.835938 132.449219 515.214844 132.273438 C 517.699219 129.429688 515.96875 127.074219 515.277344 124.515625 C 514.238281 124.453125 513.175781 124.390625 511.988281 124.316406 C 514.667969 118.511719 526.128906 119.269531 531.476562 125.574219 Z M 511.777344 116.605469 C 519.429688 113.335938 527.019531 110.855469 533.714844 118.53125 C 533.804688 118.632812 533.929688 118.777344 534.03125 118.773438 C 534.714844 118.75 535.394531 118.691406 536.792969 118.59375 C 534.078125 114.296875 530.871094 111.71875 526.53125 111.109375 C 520.996094 110.335938 515.746094 111.769531 510.808594 114.289062 C 509.664062 114.875 508.386719 115.566406 508.90625 117.980469 C 510.140625 117.382812 510.945312 116.960938 511.777344 116.605469 Z M 361.828125 408.277344 C 362.957031 406.148438 364.210938 406.527344 365.140625 407.382812 C 366.324219 408.464844 367.425781 409.734375 368.230469 411.121094 C 372.511719 418.507812 374.574219 426.691406 376.4375 434.925781 C 376.5625 435.476562 375.863281 436.214844 375.546875 436.867188 C 374.933594 436.488281 374.039062 436.246094 373.769531 435.695312 C 373.304688 434.746094 373.179688 433.613281 373 432.542969 C 372.019531 426.738281 370.21875 421.195312 367.769531 415.851562 C 366.414062 412.90625 365.210938 409.855469 361.828125 408.277344 Z M 612.566406 114.925781 C 612.449219 121.761719 610.148438 127.890625 607.515625 133.859375 C 603.757812 142.382812 598.765625 150.1875 592.15625 156.785156 C 589.605469 159.332031 586.566406 161.59375 583.371094 163.257812 C 578.917969 165.574219 574.65625 164.285156 571.703125 160.613281 C 570.238281 158.792969 569.941406 156.703125 569.898438 154.492188 C 569.753906 147.015625 571.535156 139.875 574.375 133.085938 C 576.621094 127.722656 579.386719 122.527344 582.378906 117.53125 C 585.652344 112.070312 590.585938 108.21875 596.054688 104.960938 C 600.207031 102.484375 604.449219 102.179688 608.367188 104.613281 C 612.019531 106.878906 612.800781 110.929688 612.566406 114.925781 Z M 572.53125 152.144531 C 572.53125 153.148438 572.527344 153.417969 572.53125 153.691406 C 572.625 160.605469 577.546875 163.625 583.503906 160.238281 C 585.714844 158.980469 587.808594 157.335938 589.582031 155.511719 C 598.84375 145.980469 605.335938 134.800781 608.796875 121.960938 C 609.527344 119.238281 610.003906 116.324219 609.902344 113.523438 C 609.652344 106.472656 603.6875 103.648438 598.300781 106.675781 C 594.101562 109.035156 590.152344 111.730469 587.226562 115.515625 C 578.722656 126.519531 573.867188 139.023438 572.53125 152.144531 Z M 572.53125 152.144531 " fill-opacity="1" fill-rule="evenodd"/></g></svg>